<svg width="3124" height="3121" viewBox="0 0 3124 3121" fill="none" xmlns="http://www.w3.org/2000/svg">
<path d="M1527.5 148L1435.5 2L1360 212L1294 422L1236 650L1192.5 929L1174 1127.5L1180 1324L1183 1456H1236L1272 1472.5L1301 1493.5L1351 1541L1385 1595.5L1415 1645.5L1434.5 1704L1444.5 1763.5L1447 1831L1442 1894L1434.5 1921L1408.5 1962.5L1379 2006L1419 2068L1464.5 2134L1515 2085.5L1571 2001.5L1648.5 1868.5L1695 1806L1744.5 1756.5L1813.5 1726L1896 1705L1968 1707.5L1984 1711.5L2026.5 1717.5L2060.5 1732L2095 1749.5L2121.5 1773L2172 1818.5L2203.5 1871.5L2234 1921L2293 2026.5L2355 2101L2463.5 2187.5L2537 2232L2601 2285L2637 2330.5L2659 2376.5L2677 2436L2690 2476V2547V2640L2659 2711.5L2603 2786L2541 2835.5L2463 2879L2851 3040L2910 2928.5L3009 2689.5L3061.5 2525.5L3099 2336.5L3123.5 2153.5V1970.5L3099 1794L3034 1595.5L2959.5 1437.5L2875.5 1304L2739.5 1146L2603 1013L2358 805L2135 650L1825 421L1651.5 284.5L1527.5 148Z" fill="#FFF730" stroke="#FF6767"/>
<path d="M1437 1146C1470 1058.5 1495.26 1032.06 1528.5 990.001C1561.74 947.944 1651.39 887.927 1715.5 920.499C1802 964.5 1815 1035.5 1844.5 1120C1859 1225.5 1840 1417 1818 1462C1799.5 1520.5 1763 1613.5 1704 1613.5C1626.76 1613.5 1601 1590.95 1534.48 1532.73L1532.5 1531C1460.63 1468.1 1464.11 1461.39 1426 1392C1396.23 1337.78 1404 1233.5 1437 1146Z" fill="#FF6767" stroke="#FF6767"/>
<path d="M2791 1637C2768.17 1566.5 2706.5 1452 2647.5 1442.5L2606.5 1448.11C2557.5 1470.78 2444 1551.3 2414 1682.5C2391.33 1757.5 2369.5 1935.5 2468.5 2005.5C2468.5 2005.5 2550 2107 2669.5 2042.5C2669.5 2042.5 2764 2005 2784.5 1885.5C2784.5 1885.5 2825 1736 2791 1637Z" fill="#FF6767" stroke="#FF6767"/>
<path d="M2384.5 1082C2384.5 1044.5 2259.5 860.5 2143.5 913C2071 945.813 2073.5 952.501 2053 992.501C2053 992.501 2006.5 1079.5 2006.5 1153C1986.33 1247.83 1983 1327.5 2006.5 1431C2016.5 1502.33 2053 1593.27 2143.5 1611.5C2165.83 1616 2207.42 1618.5 2251.5 1585C2276.5 1566 2295 1550.57 2362.5 1497C2394 1472 2441.36 1357.5 2438 1287C2435.67 1238 2429 1137 2384.5 1082Z" fill="#FF6767" stroke="#FF6767"/>
<path d="M1378.74 2177.47L1273.74 2238.97L1231.24 2275.97L1201.24 2312.47L1158.74 2385.47L1144.24 2454.97L1139.24 2507.47V2539.97V2574.97L1144.24 2602.97L1149.24 2629.97L1158.74 2659.97L1170.5 2685.47L1209.24 2739.97L1240.74 2775.47L1267.24 2799.47L1283.24 2809.97L1360 2852.47L1426.24 2866.97L1462.74 2870.5H1495.5L1568.24 2866.97L1694.74 2833.97L1785.24 2882.97L1883.24 2913.97L1968.74 2931.97L2072 2941.5L2157.74 2946.97L2243.24 2935.97L2301.74 2928.47L2358.24 2909.47L2541.74 2994.97L2629.74 3029.47L2675.24 3047.97L2692.74 3054.97L2714.24 3067.47L2675.24 3070.97L2646.5 3075.5L2358.24 3109.47L2288.74 3116.47L2188.74 3120.5H2021.5H1864.24H1834.74L1811.24 3118.47H1804.74H1797.24H1770.24H1754.24L1729.5 3114.47L1694.74 3110L1613.74 3102L1543.74 3092.97L1472.74 3082.5L1428.5 3072L1400 3063.47L1360 3053L1309.24 3042.5L1263.74 3030L1208.5 3014.5L1103.74 2971.97L1000.74 2924.47L905.241 2873L842.741 2838L698.741 2721L560.741 2582L450.741 2427.47L340.241 2248L244.241 2045.5L154 1814.47L98.7407 1606.47L1 1150.5L153.741 1218.97L267.741 1260.97L384.741 1287.97L621.241 1319.47L1098.24 1357.97V1480.97V1534.97L1064.74 1584.97L1045.74 1661.97L1035.24 1742.97L1040.24 1832.47L1049.24 1875.97L1055.74 1911.47L1077.74 1960.47L1107 2000.47L1161.24 2033.47L1181.74 2045.5H1208.5H1265H1282.74L1378.74 2177.47Z" fill="#6879D5" stroke="#FF6767"/>
</svg>
