<svg width="13547" height="13256" viewBox="0 0 13547 13256" fill="none" xmlns="http://www.w3.org/2000/svg">
<g style="mix-blend-mode:darken">
<path d="M6616.43 624.668L6616.78 625.225L6617.23 625.71L7155.21 1205.94L7155.64 1206.4L7156.13 1206.78L7908.86 1787.01L7908.95 1787.08L7909.04 1787.14L9253.98 2760.57L9254.07 2760.63L9254.16 2760.69L10221.3 3419.36L11283.8 4303.13L11875.6 4868.07L12465 5539.02L12828.9 6105.63L13151.7 6776.42L13433.4 7619.09L13539.5 8368.15V9145L13433.3 9922.15L13270.7 10724.9L13043.2 11421.3L12614 12436.6L12361.4 12904.3L10698.9 12228.4L11023.4 12051.1L11024 12050.8L11024.4 12050.4L11293.4 11840L11294.2 11839.4L11294.8 11838.7L11537.7 11522L11538.3 11521.3L11538.6 11520.5L11673.1 11216.5L11673.5 11215.6L11673.7 11214.6L11727.9 10851.2L11728.1 10850L11727.9 10848.9L11673.7 10515.2L11673.6 10514.6L11673.4 10514L11617 10344.1L11617 10344L11538.9 10091.2L11538.8 10090.7L11538.5 10090.1L11443.1 9894.61L11442.7 9893.85L11442.1 9893.19L11286 9699.78L11285.5 9699.16L11284.9 9698.66L11007.2 9473.37L11006.8 9473.03L11006.3 9472.75L10687.8 9283.83L10218.1 8916.91L9950.03 8601.34L9694.41 8153.49L9694.33 8153.35L9694.24 8153.22L9561.98 7942.91L9561.92 7942.81L9425.32 7717.62L9424.72 7716.64L9423.87 7715.88L9204.77 7522.48L9204.75 7522.46L9204.73 7522.44L9089.76 7422.54L9089.04 7421.92L9088.18 7421.49L8938.5 7347.1L8938.28 7346.99L8938.05 7346.9L8790.54 7285.26L8790.24 7285.13L8789.93 7285.03L8609.88 7227.65L8608.77 7227.3H8607.6H8447.08H8447.01L8446.94 7227.3L8221.33 7231.55L8220.48 7231.56L8219.66 7231.77L7861.73 7321.04L7861.13 7321.18L7860.57 7321.43L7561.21 7451.08L7559.94 7451.63L7558.94 7452.6L7344.19 7663.02L7343.79 7663.4L7343.46 7663.84L7141.72 7929.51L7141.48 7929.82L7141.28 7930.16L6787.87 8514.36L6787.69 8514.64L6562.74 8851.58L6350.57 9051.23L6158.27 8777.95L6158.14 8777.76L5987.51 8518.63L6112.62 8337.89L6112.7 8337.77L6112.77 8337.66L6225.57 8161.25L6226.17 8160.32L6226.47 8159.26L6259.01 8044.49L6259.21 8043.78L6259.27 8043.05L6280.96 7775.25L6281 7774.8L6280.98 7774.36L6270.13 7487.43L6270.11 7486.94L6270.03 7486.45L6226.64 7233.53L6226.54 7232.94L6226.35 7232.38L6141.75 6983.71L6141.48 6982.92L6141.05 6982.21L6010.89 6769.67L6010.86 6769.62L6010.82 6769.56L5863.31 6537.89L5862.8 6537.08L5862.1 6536.43L5645.17 6334.52L5644.81 6334.18L5644.4 6333.89L5518.58 6244.63L5517.99 6244.2L5517.32 6243.9L5361.13 6173.76L5359.66 6173.11H5358.06H5135.44L5122.6 5619.33L5122.6 5619.3L5122.6 5619.27L5096.58 4784.47L5176.78 3941.4L5365.41 2756.03L5616.9 1787.41L5903.13 895.098L6225.44 16.7373L6616.43 624.668Z" fill="#C5C5C5" stroke="#FF3232" stroke-width="15"/>
<path d="M7882.65 6205.89L7882.63 6205.93L7882.62 6205.96C7842.49 6330.29 7782.85 6491.24 7701.27 6621.09C7619.66 6750.98 7516.21 6849.6 7388.5 6849.6C7221 6849.6 7109.37 6825.65 7003.56 6770.8C6897.71 6715.94 6797.66 6630.14 6653.34 6506.38L6644.77 6499.03C6488.88 6365.36 6414.73 6291.42 6358.9 6214.04C6320.31 6160.58 6290.47 6105.48 6248.45 6027.88C6229.64 5993.15 6208.4 5953.92 6182.83 5908.31C6118.31 5793.2 6094.45 5624.88 6104.63 5438.8C6114.81 5252.73 6159.02 5048.98 6230.59 4863.05C6359.54 4528.03 6461.24 4403.65 6585.57 4251.57C6599.24 4234.85 6613.19 4217.78 6627.48 4200.07C6699.54 4110.75 6832.76 4002.32 6982.72 3933.53C7132.69 3864.74 7299.29 3835.64 7438.17 3904.77C7765.46 4067.89 7850.05 4318.29 7951.36 4618.17C7966.14 4661.92 7981.28 4706.73 7997.58 4752.47C8029.01 4976.64 8024.14 5292.19 7999.46 5575.63C7987.13 5717.36 7969.84 5851.04 7949.68 5961.24C7929.51 6071.46 7906.47 6158.14 7882.65 6205.89Z" fill="white" stroke="#900000"/>
<path d="M12104 6950.15L12104 6950.16C12177.7 7160.46 12170.6 7424.44 12145.2 7635.9C12132.4 7741.62 12115.1 7834.19 12100.9 7900.33C12093.8 7933.4 12087.5 7959.86 12083 7978.06C12080.8 7987.16 12078.9 7994.19 12077.7 7998.94C12077.1 8001.32 12076.6 8003.13 12076.3 8004.34L12076.1 8005.09L12075.9 8005.71L12075.8 8006.06L12075.8 8006.15L12075.8 8006.17C12075.8 8006.17 12075.8 8006.17 12076.2 8006.31L12075.8 8006.17L12075.7 8006.2L12075.7 8006.22C12031.3 8260.08 11906.6 8426.82 11793.1 8530.11C11736.3 8581.75 11682.3 8617.53 11642.5 8640.4C11622.6 8651.83 11606.3 8660.04 11594.9 8665.38C11589.2 8668.06 11584.8 8670.01 11581.7 8671.3C11580.2 8671.95 11579.1 8672.43 11578.3 8672.74C11577.9 8672.9 11577.6 8673.02 11577.4 8673.09L11577.2 8673.18L11577.1 8673.2L11577.1 8673.21C11577.1 8673.21 11577.1 8673.21 11577.1 8673.24L11577.1 8673.21L11577.1 8673.22L11577.1 8673.24C11318 8810.24 11100.2 8770.94 10947.1 8697.4C10870.5 8660.63 10810.2 8615.3 10769 8579.15C10748.3 8561.08 10732.5 8545.31 10721.8 8534.06C10716.5 8528.43 10712.5 8523.94 10709.7 8520.85C10708.4 8519.3 10707.4 8518.11 10706.7 8517.3C10706.3 8516.9 10706.1 8516.6 10705.9 8516.39L10705.7 8516.16L10705.7 8516.1L10705.7 8516.09C10705.7 8516.09 10705.7 8516.08 10705.7 8516.09L10705.7 8516.08L10705.6 8516.03L10705.6 8515.99C10491 8367.34 10407.3 8103.98 10389.6 7837.84C10371.9 7571.7 10420.1 7302.91 10469.3 7143.55L10469.3 7143.53L10469.3 7143.52C10534.4 6864.78 10689.9 6639.86 10855.8 6472.58C11021.7 6305.33 11197.9 6195.72 11304.1 6147.56L11481.9 6123.72C11545.7 6133.82 11610.3 6171.73 11672.9 6227.67C11735.5 6283.62 11796 6357.58 11851.6 6439.65C11962.8 6603.79 12054.4 6800.35 12104 6950.15Z" fill="white" stroke="#900000"/>
<path d="M10340.3 4590.82V4591L10340.5 4591.14C10436.9 4707.94 10492.4 4873.62 10525 5036.19C10557.6 5198.74 10567.4 5358.11 10572.5 5462.25C10579.7 5611.99 10532 5808.51 10465.4 5980.91C10432.1 6067.1 10394.1 6147.24 10355.8 6212.47C10317.6 6277.71 10279.2 6327.98 10245.1 6354.49C10130.8 6443.36 10048.9 6507.54 9985.05 6557.56C9885.3 6635.71 9829.66 6679.31 9763.52 6728.55C9572.43 6870.84 9392.17 6860.22 9295.36 6841.11C8903.06 6763.66 8744.76 6377.44 8701.38 6074.27L8701.38 6074.25L8701.38 6074.22C8599.44 5634.35 8613.9 5295.79 8701.38 4892.73L8701.39 4892.68V4892.63C8701.39 4736.5 8751.8 4566.01 8802.23 4434.52C8827.44 4368.78 8852.65 4312.8 8871.56 4273.26C8881.01 4253.49 8888.89 4237.83 8894.4 4227.11C8897.16 4221.75 8899.33 4217.63 8900.8 4214.84C8901.54 4213.45 8902.11 4212.39 8902.49 4211.69C8902.68 4211.33 8902.82 4211.06 8902.92 4210.89L8903.03 4210.68L8903.06 4210.63L8903.07 4210.62C8903.07 4210.62 8903.07 4210.62 8902.63 4210.38L8903.07 4210.62L8903.07 4210.61C8911.44 4194.62 8918.92 4179.88 8925.87 4166.19C8955.89 4107.06 8976 4067.44 9014.69 4030.31C9062.34 3984.59 9138.19 3942.64 9295.47 3872.9C9546.8 3761.45 9807.98 3900.99 10006.4 4088.53C10105.6 4182.28 10189.1 4287.99 10247.8 4380.21C10277.2 4426.32 10300.3 4469.06 10316.1 4505.23C10331.9 4541.43 10340.3 4571 10340.3 4590.82Z" fill="white" stroke="#900000"/>
<path d="M5924.29 9236.34L5503.88 9477.6L5500.98 9479.26L5498.44 9481.43L5314.05 9638.71L5311.76 9640.66L5309.83 9642.96L5179.68 9798.12L5177.8 9800.35L5176.31 9802.86L4991.92 10113.2L4988.89 10118.3L4987.66 10124.1L4924.75 10419.5L4924.33 10421.5L4924.13 10423.5L4902.44 10646.7L4902.27 10648.4V10650.2V10788.3V10937.1V10940.3L4902.85 10943.5L4924.55 11062.6L4924.57 11062.7L4924.59 11062.8L4946.28 11177.6L4946.7 11179.8L4947.4 11181.9L4988.61 11309.5L4989.32 11311.6L4990.3 11313.7L5041.32 11422.1L5042.76 11425.2L5044.75 11427.9L5212.83 11659.6L5213.97 11661.2L5215.28 11662.6L5351.94 11813.5L5353.26 11815L5354.73 11816.3L5469.71 11918.3L5471.79 11920.1L5474.13 11921.7L5543.54 11966.3L5544.67 11967L5545.85 11967.6L5878.87 12148.3L5883.42 12150.8L5888.49 12151.9L6175.87 12213.5L6177.93 12213.9L6180.02 12214.1L6338.38 12229.1L6340.08 12229.3H6341.78H6483.91H6484.76L6485.62 12229.3L6801.2 12214.3L6804.86 12214.1L6808.4 12213.2L7343.74 12076.4L7724.08 12278.1L7727.06 12279.7L7730.29 12280.7L8155.46 12412.5L8157.14 12413L8158.85 12413.3L8529.79 12489.9L8530.86 12490.1L8531.94 12490.2L8975.6 12554L8978.14 12554.4H8980.72H9357.04H9359.3L9361.54 12554.1L9732.47 12507.3L9732.49 12507.3L9986.27 12475.4L9987.17 12475.3L9988.06 12475.2L10324.6 12415.6L11007 12754.6L11008.5 12755.4L11010.1 12756L11391.5 12902.5L11391.9 12902.7L11588.9 12981.1L11589 12981.2L11589.1 12981.2L11650.1 13005.1L11599.1 13009.6L11597.9 13009.7L11596.7 13009.9L11472.7 13029L10223.4 13173.3L10222.8 13173.3L9922.9 13202.9L9490.83 13220H8765.96H8083.69H7957.22L7856.79 13211.5L7855.27 13211.4H7853.75H7825.55H7793.01H7675.87H7609.29L7504.75 13194.8L7504.18 13194.7L7503.61 13194.6L7352.81 13175.6L7352.3 13175.6L7351.78 13175.5L7000.87 13141.6L7000.36 13141.5L6698.34 13103.3L6697.71 13103.3L6391.82 13059.1L6202.38 13015L6079.71 12979L6079.12 12978.9L6078.52 12978.7L5904.98 12934.2L5904.09 12934L5903.19 12933.8L5684.08 12889.4L5487.96 12836.6L5487.77 12836.5L5250.21 12771.2L4798.33 12591.5L4353.22 12390.4L3940.38 12172.4L3939.87 12172.1L3671.91 12025.1L3051.08 11530.9L2455.83 10943.4L1981.04 10289.9L1503.34 9529.74L1088.27 8671.9L697.998 7692.96L459.027 6811.65L50.2859 4943.4L648.191 5206.01L649.303 5206.49L650.445 5206.91L1145.03 5385.44L1147.14 5386.2L1149.32 5386.69L1656.92 5501.46L1658.55 5501.83L1660.2 5502.05L2686.26 5635.94L2687.17 5636.06L2688.08 5636.13L4724.39 5797.17V6286.74V6505.15L4585.33 6708.5L4581.71 6713.8L4580.14 6720.03L4497.71 7047.34L4497.2 7049.35L4496.93 7051.41L4451.38 7395.72L4450.93 7399.1L4451.12 7402.49L4472.82 7782.94L4472.97 7785.66L4473.53 7788.32L4512.49 7972.82L4540.62 8123.31L4541.43 8127.67L4543.28 8131.69L4638.72 8339.98L4640.32 8343.46L4642.6 8346.52L4769.55 8516.55L4773.82 8522.28L4779.96 8525.94L5015.28 8666.21L5015.53 8666.36L5015.77 8666.5L5104.71 8717.64L5113.04 8722.43H5122.66H5238.75H5483.88H5542.74L5924.29 9236.34Z" fill="#3E3E3E" stroke="#900000" stroke-width="72"/>
</g>
</svg>
